<svg width="20" height="20" viewBox="0 0 20 20" fill="none" xmlns="http://www.w3.org/2000/svg">
<path d="M9.41022 2.54438C9.74331 2.23693 10.2567 2.23693 10.5898 2.54438L11.383 3.27651C11.5931 3.47045 11.8851 3.54869 12.164 3.4858L13.217 3.24835C13.6592 3.14864 14.1038 3.40533 14.2386 3.83813L14.5594 4.86878C14.6444 5.14179 14.8582 5.35556 15.1312 5.44056L16.1619 5.76142C16.5947 5.89616 16.8514 6.34077 16.7517 6.78295L16.5142 7.83596C16.4513 8.11488 16.5296 8.40691 16.7235 8.61702L17.4556 9.41022C17.7631 9.74331 17.7631 10.2567 17.4556 10.5898L16.7235 11.383C16.5296 11.5931 16.4513 11.8851 16.5142 12.164L16.7517 13.217C16.8514 13.6592 16.5947 14.1038 16.1619 14.2386L15.1312 14.5594C14.8582 14.6444 14.6444 14.8582 14.5594 15.1312L14.2386 16.1619C14.1038 16.5947 13.6592 16.8514 13.217 16.7517L12.164 16.5142C11.8851 16.4513 11.5931 16.5296 11.383 16.7235L10.5898 17.4556C10.2567 17.7631 9.74331 17.7631 9.41022 17.4556L8.61702 16.7235C8.40691 16.5296 8.11488 16.4513 7.83596 16.5142L6.78295 16.7517C6.34077 16.8514 5.89616 16.5947 5.76142 16.1619L5.44056 15.1312C5.35556 14.8582 5.14179 14.6444 4.86878 14.5594L3.83813 14.2386C3.40533 14.1038 3.14864 13.6592 3.24835 13.217L3.4858 12.164C3.54869 11.8851 3.47045 11.5931 3.27651 11.383L2.54438 10.5898C2.23693 10.2567 2.23693 9.74331 2.54438 9.41022L3.27651 8.61702C3.47045 8.40691 3.54869 8.11488 3.4858 7.83596L3.24835 6.78295C3.14864 6.34077 3.40533 5.89616 3.83813 5.76142L4.86878 5.44056C5.14179 5.35556 5.35556 5.14179 5.44056 4.86878L5.76142 3.83813C5.89616 3.40533 6.34077 3.14864 6.78295 3.24835L7.83596 3.4858C8.11488 3.54869 8.40691 3.47045 8.61702 3.27651L9.41022 2.54438Z" fill="#E0EF66"/>
<path d="M7.6665 10.3333L8.99984 11.6667L12.3332 8.33333" stroke="#174735" stroke-width="1.66182" stroke-linecap="round" stroke-linejoin="round"/>
</svg>
